<?xml version="1.0" standalone="no"?>
<!DOCTYPE svg PUBLIC "-//W3C//DTD SVG 20010904//EN"
 "http://www.w3.org/TR/2001/REC-SVG-20010904/DTD/svg10.dtd">
<svg version="1.0" xmlns="http://www.w3.org/2000/svg"
 width="500.000000pt" height="500.000000pt" viewBox="0 0 500.000000 500.000000"
 preserveAspectRatio="xMidYMid meet">
<metadata>
Created by potrace 1.14, written by Peter Selinger 2001-2017
</metadata>
<g transform="translate(0.000000,500.000000) scale(0.100000,-0.100000)"
fill="#000000" stroke="none">
<path d="M957 4771 c-2 -5 0 -4617 2 -4648 1 -10 72 -13 319 -13 l318 0 0
1621 c-1 891 2 1623 5 1625 4 2 9 -18 13 -44 3 -26 8 -58 11 -72 5 -29 34
-203 40 -240 2 -14 16 -95 29 -180 14 -85 27 -164 30 -175 3 -18 8 -45 21
-135 3 -14 56 -338 120 -720 64 -382 118 -706 120 -720 2 -14 11 -65 19 -115
8 -49 17 -106 20 -125 3 -19 8 -46 11 -60 2 -13 7 -42 10 -65 3 -22 10 -62 15
-90 5 -27 12 -66 15 -85 3 -19 7 -46 10 -60 2 -14 7 -43 10 -65 3 -23 7 -50 9
-60 2 -11 7 -42 11 -70 5 -27 9 -52 10 -55 1 -3 5 -29 9 -58 l8 -52 348 0 348
0 11 82 c7 46 18 124 26 173 20 124 26 164 31 205 2 19 11 73 19 120 8 47 17
108 20 135 3 28 10 75 15 105 5 30 12 73 15 95 3 22 10 65 15 95 5 30 12 75
15 100 3 25 10 70 15 100 5 30 11 73 14 95 7 49 17 113 22 140 2 11 6 43 9 70
3 28 8 57 10 65 2 8 7 35 10 60 3 25 15 104 26 175 10 72 22 146 24 165 3 19
10 64 16 100 6 36 12 76 14 90 2 14 8 54 14 90 5 36 13 85 16 110 3 25 10 70
15 100 5 30 12 71 15 90 2 19 14 96 25 170 11 74 22 149 25 165 2 17 11 73 19
125 8 52 18 115 22 140 3 25 8 52 9 60 2 8 4 29 5 45 1 22 3 25 8 13 4 -10 7
-751 6 -1648 l-1 -1630 347 0 346 0 0 2332 -1 2333 -508 1 c-368 1 -510 -2
-512 -10 -2 -6 -6 -29 -9 -51 -8 -61 -66 -447 -71 -470 -2 -11 -7 -40 -10 -65
-3 -25 -7 -55 -9 -67 -3 -11 -8 -43 -11 -70 -4 -26 -20 -131 -35 -233 -16
-102 -31 -205 -35 -230 -3 -25 -11 -74 -16 -110 -6 -36 -13 -81 -15 -100 -2
-19 -6 -46 -9 -60 -6 -33 -8 -47 -45 -295 -17 -115 -33 -221 -35 -235 -8 -55
-46 -307 -51 -340 -3 -19 -7 -46 -9 -60 -3 -14 -7 -43 -10 -65 -3 -22 -8 -51
-10 -65 -3 -14 -7 -43 -10 -65 -3 -22 -12 -80 -20 -130 -8 -49 -17 -108 -19
-130 -3 -22 -17 -114 -31 -205 -14 -91 -27 -180 -30 -199 -7 -42 -15 -53 -16
-23 -1 12 -2 25 -3 30 -1 4 -6 32 -10 62 -5 30 -10 64 -12 75 -3 11 -7 36 -10
55 -3 19 -7 46 -10 60 -2 14 -8 52 -14 85 -5 33 -18 114 -29 180 -11 66 -22
138 -26 160 -3 22 -17 105 -30 185 -14 80 -27 163 -30 185 -3 22 -10 65 -15
95 -5 30 -12 71 -15 90 -3 19 -7 46 -10 60 -3 14 -7 41 -10 60 -3 19 -7 46
-10 60 -2 14 -6 41 -9 60 -5 33 -19 117 -86 520 -16 96 -32 198 -35 225 -4 28
-8 57 -10 65 -3 8 -7 33 -10 55 -7 44 -13 79 -19 110 -2 11 -6 41 -10 66 -4
25 -9 57 -11 70 -16 93 -35 211 -40 249 -4 24 -8 47 -10 50 -2 3 -6 29 -10 59
-4 30 -9 63 -11 75 -3 19 -13 78 -20 121 -8 56 -16 101 -20 106 -5 8 -1014 8
-1017 0z"/>
</g>
</svg>
